0
SECTION
2
HEADER
9
$ACADVER
1
AC1015
0
ENDSEC
0
SECTION
2
TABLES
0
TABLE
2
LTYPE
70
1
0
LTYPE
2
CONTINUOUS
70
0
3
Solid line
72
65
73
0
40
0.0
0
ENDTAB
0
TABLE
2
LAYER
70
3
0
LAYER
2
0
70
0
62
7
6
CONTINUOUS
370
-1
0
LAYER
2
SURVEY
70
0
62
1
6
CONTINUOUS
370
-1
0
LAYER
2
HIFACE
70
0
62
3
6
CONTINUOUS
370
-1
0
ENDTAB
0
ENDSEC
0
SECTION
2
BLOCKS
0
ENDSEC
0
SECTION
2
ENTITIES
0
LINE
100
AcDbEntity
8
0
100
AcDbLine
10
39652926.800
20
39458238.400
30
0.0
11
39652934.100
21
39458242.100
31
0.0
0
LINE
100
AcDbEntity
8
0
100
AcDbLine
10
39652946.900
20
39458238.400
30
0.0
11
39652954.200
21
39458242.100
31
0.0
0
LINE
100
AcDbEntity
8
0
100
AcDbLine
10
39652967.000
20
39458238.400
30
0.0
11
39652974.300
21
39458242.100
31
0.0
0
LINE
100
AcDbEntity
8
0
100
AcDbLine
10
39652987.100
20
39458238.400
30
0.0
11
39652994.400
21
39458242.100
31
0.0
0
LINE
100
AcDbEntity
8
0
100
AcDbLine
10
39653007.200
20
39458238.400
30
0.0
11
39653014.500
21
39458242.100
31
0.0
0
LINE
100
AcDbEntity
8
0
100
AcDbLine
10
39653027.300
20
39458238.400
30
0.0
11
39653034.600
21
39458242.100
31
0.0
0
LINE
100
AcDbEntity
8
0
100
AcDbLine
10
39653047.400
20
39458238.400
30
0.0
11
39653054.700
21
39458242.100
31
0.0
0
LINE
100
AcDbEntity
8
0
100
AcDbLine
10
39653067.500
20
39458238.400
30
0.0
11
39653074.800
21
39458242.100
31
0.0
0
LINE
100
AcDbEntity
8
0
100
AcDbLine
10
39653087.600
20
39458238.400
30
0.0
11
39653094.900
21
39458242.100
31
0.0
0
LINE
100
AcDbEntity
8
0
100
AcDbLine
10
39653107.700
20
39458238.400
30
0.0
11
39653115.000
21
39458242.100
31
0.0
0
LINE
100
AcDbEntity
8
0
100
AcDbLine
10
39653127.800
20
39458238.400
30
0.0
11
39653135.100
21
39458242.100
31
0.0
0
LINE
100
AcDbEntity
8
0
100
AcDbLine
10
39653147.900
20
39458238.400
30
0.0
11
39653155.200
21
39458242.100
31
0.0
0
LINE
100
AcDbEntity
8
0
100
AcDbLine
10
39653168.000
20
39458238.400
30
0.0
11
39653175.300
21
39458242.100
31
0.0
0
LINE
100
AcDbEntity
8
0
100
AcDbLine
10
39653188.100
20
39458238.400
30
0.0
11
39653195.400
21
39458242.100
31
0.0
0
LINE
100
AcDbEntity
8
0
100
AcDbLine
10
39653208.200
20
39458238.400
30
0.0
11
39653215.500
21
39458242.100
31
0.0
0
LINE
100
AcDbEntity
8
0
100
AcDbLine
10
39653228.300
20
39458238.400
30
0.0
11
39653235.600
21
39458242.100
31
0.0
0
LINE
100
AcDbEntity
8
0
100
AcDbLine
10
39653248.400
20
39458238.400
30
0.0
11
39653255.700
21
39458242.100
31
0.0
0
LINE
100
AcDbEntity
8
0
100
AcDbLine
10
39653268.500
20
39458238.400
30
0.0
11
39653275.800
21
39458242.100
31
0.0
0
LINE
100
AcDbEntity
8
0
100
AcDbLine
10
39653288.600
20
39458238.400
30
0.0
11
39653295.900
21
39458242.100
31
0.0
0
LINE
100
AcDbEntity
8
0
100
AcDbLine
10
39653308.700
20
39458238.400
30
0.0
11
39653316.000
21
39458242.100
31
0.0
0
LINE
100
AcDbEntity
8
0
100
AcDbLine
10
39652926.800
20
39458258.500
30
0.0
11
39652934.100
21
39458262.200
31
0.0
0
LINE
100
AcDbEntity
8
0
100
AcDbLine
10
39652946.900
20
39458258.500
30
0.0
11
39652954.200
21
39458262.200
31
0.0
0
LINE
100
AcDbEntity
8
0
100
AcDbLine
10
39652967.000
20
39458258.500
30
0.0
11
39652974.300
21
39458262.200
31
0.0
0
LINE
100
AcDbEntity
8
0
100
AcDbLine
10
39652987.100
20
39458258.500
30
0.0
11
39652994.400
21
39458262.200
31
0.0
0
LINE
100
AcDbEntity
8
0
100
AcDbLine
10
39653007.200
20
39458258.500
30
0.0
11
39653014.500
21
39458262.200
31
0.0
0
LINE
100
AcDbEntity
8
0
100
AcDbLine
10
39653027.300
20
39458258.500
30
0.0
11
39653034.600
21
39458262.200
31
0.0
0
LINE
100
AcDbEntity
8
0
100
AcDbLine
10
39653047.400
20
39458258.500
30
0.0
11
39653054.700
21
39458262.200
31
0.0
0
LINE
100
AcDbEntity
8
0
100
AcDbLine
10
39653067.500
20
39458258.500
30
0.0
11
39653074.800
21
39458262.200
31
0.0
0
LINE
100
AcDbEntity
8
0
100
AcDbLine
10
39653087.600
20
39458258.500
30
0.0
11
39653094.900
21
39458262.200
31
0.0
0
LINE
100
AcDbEntity
8
0
100
AcDbLine
10
39653107.700
20
39458258.500
30
0.0
11
39653115.000
21
39458262.200
31
0.0
0
LINE
100
AcDbEntity
8
0
100
AcDbLine
10
39653127.800
20
39458258.500
30
0.0
11
39653135.100
21
39458262.200
31
0.0
0
LINE
100
AcDbEntity
8
0
100
AcDbLine
10
39653147.900
20
39458258.500
30
0.0
11
39653155.200
21
39458262.200
31
0.0
0
LINE
100
AcDbEntity
8
0
100
AcDbLine
10
39653168.000
20
39458258.500
30
0.0
11
39653175.300
21
39458262.200
31
0.0
0
LINE
100
AcDbEntity
8
0
100
AcDbLine
10
39653188.100
20
39458258.500
30
0.0
11
39653195.400
21
39458262.200
31
0.0
0
LINE
100
AcDbEntity
8
0
100
AcDbLine
10
39653208.200
20
39458258.500
30
0.0
11
39653215.500
21
39458262.200
31
0.0
0
LINE
100
AcDbEntity
8
0
100
AcDbLine
10
39653228.300
20
39458258.500
30
0.0
11
39653235.600
21
39458262.200
31
0.0
0
LINE
100
AcDbEntity
8
0
100
AcDbLine
10
39653248.400
20
39458258.500
30
0.0
11
39653255.700
21
39458262.200
31
0.0
0
LINE
100
AcDbEntity
8
0
100
AcDbLine
10
39653268.500
20
39458258.500
30
0.0
11
39653275.800
21
39458262.200
31
0.0
0
LINE
100
AcDbEntity
8
0
100
AcDbLine
10
39653288.600
20
39458258.500
30
0.0
11
39653295.900
21
39458262.200
31
0.0
0
LINE
100
AcDbEntity
8
0
100
AcDbLine
10
39653308.700
20
39458258.500
30
0.0
11
39653316.000
21
39458262.200
31
0.0
0
LINE
100
AcDbEntity
8
0
100
AcDbLine
10
39652926.800
20
39458278.600
30
0.0
11
39652934.100
21
39458282.300
31
0.0
0
LINE
100
AcDbEntity
8
0
100
AcDbLine
10
39652946.900
20
39458278.600
30
0.0
11
39652954.200
21
39458282.300
31
0.0
0
LINE
100
AcDbEntity
8
0
100
AcDbLine
10
39652967.000
20
39458278.600
30
0.0
11
39652974.300
21
39458282.300
31
0.0
0
LINE
100
AcDbEntity
8
0
100
AcDbLine
10
39652987.100
20
39458278.600
30
0.0
11
39652994.400
21
39458282.300
31
0.0
0
LINE
100
AcDbEntity
8
0
100
AcDbLine
10
39653007.200
20
39458278.600
30
0.0
11
39653014.500
21
39458282.300
31
0.0
0
LINE
100
AcDbEntity
8
0
100
AcDbLine
10
39653027.300
20
39458278.600
30
0.0
11
39653034.600
21
39458282.300
31
0.0
0
LINE
100
AcDbEntity
8
0
100
AcDbLine
10
39653047.400
20
39458278.600
30
0.0
11
39653054.700
21
39458282.300
31
0.0
0
LINE
100
AcDbEntity
8
0
100
AcDbLine
10
39653067.500
20
39458278.600
30
0.0
11
39653074.800
21
39458282.300
31
0.0
0
LINE
100
AcDbEntity
8
0
100
AcDbLine
10
39653087.600
20
39458278.600
30
0.0
11
39653094.900
21
39458282.300
31
0.0
0
LINE
100
AcDbEntity
8
0
100
AcDbLine
10
39653107.700
20
39458278.600
30
0.0
11
39653115.000
21
39458282.300
31
0.0
0
LINE
100
AcDbEntity
8
0
100
AcDbLine
10
39653127.800
20
39458278.600
30
0.0
11
39653135.100
21
39458282.300
31
0.0
0
LINE
100
AcDbEntity
8
0
100
AcDbLine
10
39653147.900
20
39458278.600
30
0.0
11
39653155.200
21
39458282.300
31
0.0
0
LINE
100
AcDbEntity
8
0
100
AcDbLine
10
39653168.000
20
39458278.600
30
0.0
11
39653175.300
21
39458282.300
31
0.0
0
LINE
100
AcDbEntity
8
0
100
AcDbLine
10
39653188.100
20
39458278.600
30
0.0
11
39653195.400
21
39458282.300
31
0.0
0
LINE
100
AcDbEntity
8
0
100
AcDbLine
10
39653208.200
20
39458278.600
30
0.0
11
39653215.500
21
39458282.300
31
0.0
0
LINE
100
AcDbEntity
8
0
100
AcDbLine
10
39653228.300
20
39458278.600
30
0.0
11
39653235.600
21
39458282.300
31
0.0
0
LINE
100
AcDbEntity
8
0
100
AcDbLine
10
39653248.400
20
39458278.600
30
0.0
11
39653255.700
21
39458282.300
31
0.0
0
LINE
100
AcDbEntity
8
0
100
AcDbLine
10
39653268.500
20
39458278.600
30
0.0
11
39653275.800
21
39458282.300
31
0.0
0
LINE
100
AcDbEntity
8
0
100
AcDbLine
10
39653288.600
20
39458278.600
30
0.0
11
39653295.900
21
39458282.300
31
0.0
0
LINE
100
AcDbEntity
8
0
100
AcDbLine
10
39653308.700
20
39458278.600
30
0.0
11
39653316.000
21
39458282.300
31
0.0
0
LINE
100
AcDbEntity
8
0
100
AcDbLine
10
39652926.800
20
39458298.700
30
0.0
11
39652934.100
21
39458302.400
31
0.0
0
LINE
100
AcDbEntity
8
0
100
AcDbLine
10
39652946.900
20
39458298.700
30
0.0
11
39652954.200
21
39458302.400
31
0.0
0
LINE
100
AcDbEntity
8
0
100
AcDbLine
10
39652967.000
20
39458298.700
30
0.0
11
39652974.300
21
39458302.400
31
0.0
0
LINE
100
AcDbEntity
8
0
100
AcDbLine
10
39652987.100
20
39458298.700
30
0.0
11
39652994.400
21
39458302.400
31
0.0
0
LINE
100
AcDbEntity
8
0
100
AcDbLine
10
39653007.200
20
39458298.700
30
0.0
11
39653014.500
21
39458302.400
31
0.0
0
LINE
100
AcDbEntity
8
0
100
AcDbLine
10
39653027.300
20
39458298.700
30
0.0
11
39653034.600
21
39458302.400
31
0.0
0
LINE
100
AcDbEntity
8
0
100
AcDbLine
10
39653047.400
20
39458298.700
30
0.0
11
39653054.700
21
39458302.400
31
0.0
0
LINE
100
AcDbEntity
8
0
100
AcDbLine
10
39653067.500
20
39458298.700
30
0.0
11
39653074.800
21
39458302.400
31
0.0
0
LINE
100
AcDbEntity
8
0
100
AcDbLine
10
39653087.600
20
39458298.700
30
0.0
11
39653094.900
21
39458302.400
31
0.0
0
LINE
100
AcDbEntity
8
0
100
AcDbLine
10
39653107.700
20
39458298.700
30
0.0
11
39653115.000
21
39458302.400
31
0.0
0
LINE
100
AcDbEntity
8
0
100
AcDbLine
10
39653127.800
20
39458298.700
30
0.0
11
39653135.100
21
39458302.400
31
0.0
0
LINE
100
AcDbEntity
8
0
100
AcDbLine
10
39653147.900
20
39458298.700
30
0.0
11
39653155.200
21
39458302.400
31
0.0
0
LINE
100
AcDbEntity
8
0
100
AcDbLine
10
39653168.000
20
39458298.700
30
0.0
11
39653175.300
21
39458302.400
31
0.0
0
LINE
100
AcDbEntity
8
0
100
AcDbLine
10
39653188.100
20
39458298.700
30
0.0
11
39653195.400
21
39458302.400
31
0.0
0
LINE
100
AcDbEntity
8
0
100
AcDbLine
10
39653208.200
20
39458298.700
30
0.0
11
39653215.500
21
39458302.400
31
0.0
0
LINE
100
AcDbEntity
8
0
100
AcDbLine
10
39653228.300
20
39458298.700
30
0.0
11
39653235.600
21
39458302.400
31
0.0
0
LINE
100
AcDbEntity
8
0
100
AcDbLine
10
39653248.400
20
39458298.700
30
0.0
11
39653255.700
21
39458302.400
31
0.0
0
LINE
100
AcDbEntity
8
0
100
AcDbLine
10
39653268.500
20
39458298.700
30
0.0
11
39653275.800
21
39458302.400
31
0.0
0
LINE
100
AcDbEntity
8
0
100
AcDbLine
10
39653288.600
20
39458298.700
30
0.0
11
39653295.900
21
39458302.400
31
0.0
0
LINE
100
AcDbEntity
8
0
100
AcDbLine
10
39653308.700
20
39458298.700
30
0.0
11
39653316.000
21
39458302.400
31
0.0
0
LINE
100
AcDbEntity
8
0
100
AcDbLine
10
39652926.800
20
39458318.800
30
0.0
11
39652934.100
21
39458322.500
31
0.0
0
LINE
100
AcDbEntity
8
0
100
AcDbLine
10
39652946.900
20
39458318.800
30
0.0
11
39652954.200
21
39458322.500
31
0.0
0
LINE
100
AcDbEntity
8
0
100
AcDbLine
10
39652967.000
20
39458318.800
30
0.0
11
39652974.300
21
39458322.500
31
0.0
0
LINE
100
AcDbEntity
8
0
100
AcDbLine
10
39652987.100
20
39458318.800
30
0.0
11
39652994.400
21
39458322.500
31
0.0
0
LINE
100
AcDbEntity
8
0
100
AcDbLine
10
39653007.200
20
39458318.800
30
0.0
11
39653014.500
21
39458322.500
31
0.0
0
LINE
100
AcDbEntity
8
0
100
AcDbLine
10
39653027.300
20
39458318.800
30
0.0
11
39653034.600
21
39458322.500
31
0.0
0
LINE
100
AcDbEntity
8
0
100
AcDbLine
10
39653047.400
20
39458318.800
30
0.0
11
39653054.700
21
39458322.500
31
0.0
0
LINE
100
AcDbEntity
8
0
100
AcDbLine
10
39653067.500
20
39458318.800
30
0.0
11
39653074.800
21
39458322.500
31
0.0
0
LINE
100
AcDbEntity
8
0
100
AcDbLine
10
39653087.600
20
39458318.800
30
0.0
11
39653094.900
21
39458322.500
31
0.0
0
LINE
100
AcDbEntity
8
0
100
AcDbLine
10
39653107.700
20
39458318.800
30
0.0
11
39653115.000
21
39458322.500
31
0.0
0
LINE
100
AcDbEntity
8
0
100
AcDbLine
10
39653127.800
20
39458318.800
30
0.0
11
39653135.100
21
39458322.500
31
0.0
0
LINE
100
AcDbEntity
8
0
100
AcDbLine
10
39653147.900
20
39458318.800
30
0.0
11
39653155.200
21
39458322.500
31
0.0
0
LINE
100
AcDbEntity
8
0
100
AcDbLine
10
39653168.000
20
39458318.800
30
0.0
11
39653175.300
21
39458322.500
31
0.0
0
LINE
100
AcDbEntity
8
0
100
AcDbLine
10
39653188.100
20
39458318.800
30
0.0
11
39653195.400
21
39458322.500
31
0.0
0
LINE
100
AcDbEntity
8
0
100
AcDbLine
10
39653208.200
20
39458318.800
30
0.0
11
39653215.500
21
39458322.500
31
0.0
0
LINE
100
AcDbEntity
8
0
100
AcDbLine
10
39653228.300
20
39458318.800
30
0.0
11
39653235.600
21
39458322.500
31
0.0
0
LINE
100
AcDbEntity
8
0
100
AcDbLine
10
39653248.400
20
39458318.800
30
0.0
11
39653255.700
21
39458322.500
31
0.0
0
LINE
100
AcDbEntity
8
0
100
AcDbLine
10
39653268.500
20
39458318.800
30
0.0
11
39653275.800
21
39458322.500
31
0.0
0
LINE
100
AcDbEntity
8
0
100
AcDbLine
10
39653288.600
20
39458318.800
30
0.0
11
39653295.900
21
39458322.500
31
0.0
0
LINE
100
AcDbEntity
8
0
100
AcDbLine
10
39653308.700
20
39458318.800
30
0.0
11
39653316.000
21
39458322.500
31
0.0
0
LINE
100
AcDbEntity
8
0
100
AcDbLine
10
39652926.800
20
39458338.900
30
0.0
11
39652934.100
21
39458342.600
31
0.0
0
LINE
100
AcDbEntity
8
0
100
AcDbLine
10
39652946.900
20
39458338.900
30
0.0
11
39652954.200
21
39458342.600
31
0.0
0
LINE
100
AcDbEntity
8
0
100
AcDbLine
10
39652967.000
20
39458338.900
30
0.0
11
39652974.300
21
39458342.600
31
0.0
0
LINE
100
AcDbEntity
8
0
100
AcDbLine
10
39652987.100
20
39458338.900
30
0.0
11
39652994.400
21
39458342.600
31
0.0
0
LINE
100
AcDbEntity
8
0
100
AcDbLine
10
39653007.200
20
39458338.900
30
0.0
11
39653014.500
21
39458342.600
31
0.0
0
LINE
100
AcDbEntity
8
0
100
AcDbLine
10
39653027.300
20
39458338.900
30
0.0
11
39653034.600
21
39458342.600
31
0.0
0
LINE
100
AcDbEntity
8
0
100
AcDbLine
10
39653047.400
20
39458338.900
30
0.0
11
39653054.700
21
39458342.600
31
0.0
0
LINE
100
AcDbEntity
8
0
100
AcDbLine
10
39653067.500
20
39458338.900
30
0.0
11
39653074.800
21
39458342.600
31
0.0
0
LINE
100
AcDbEntity
8
0
100
AcDbLine
10
39653087.600
20
39458338.900
30
0.0
11
39653094.900
21
39458342.600
31
0.0
0
LINE
100
AcDbEntity
8
0
100
AcDbLine
10
39653107.700
20
39458338.900
30
0.0
11
39653115.000
21
39458342.600
31
0.0
0
LINE
100
AcDbEntity
8
0
100
AcDbLine
10
39653127.800
20
39458338.900
30
0.0
11
39653135.100
21
39458342.600
31
0.0
0
LINE
100
AcDbEntity
8
0
100
AcDbLine
10
39653147.900
20
39458338.900
30
0.0
11
39653155.200
21
39458342.600
31
0.0
0
LINE
100
AcDbEntity
8
0
100
AcDbLine
10
39653168.000
20
39458338.900
30
0.0
11
39653175.300
21
39458342.600
31
0.0
0
LINE
100
AcDbEntity
8
0
100
AcDbLine
10
39653188.100
20
39458338.900
30
0.0
11
39653195.400
21
39458342.600
31
0.0
0
LINE
100
AcDbEntity
8
0
100
AcDbLine
10
39653208.200
20
39458338.900
30
0.0
11
39653215.500
21
39458342.600
31
0.0
0
LINE
100
AcDbEntity
8
0
100
AcDbLine
10
39653228.300
20
39458338.900
30
0.0
11
39653235.600
21
39458342.600
31
0.0
0
LINE
100
AcDbEntity
8
0
100
AcDbLine
10
39653248.400
20
39458338.900
30
0.0
11
39653255.700
21
39458342.600
31
0.0
0
LINE
100
AcDbEntity
8
0
100
AcDbLine
10
39653268.500
20
39458338.900
30
0.0
11
39653275.800
21
39458342.600
31
0.0
0
LINE
100
AcDbEntity
8
0
100
AcDbLine
10
39653288.600
20
39458338.900
30
0.0
11
39653295.900
21
39458342.600
31
0.0
0
LINE
100
AcDbEntity
8
0
100
AcDbLine
10
39653308.700
20
39458338.900
30
0.0
11
39653316.000
21
39458342.600
31
0.0
0
LINE
100
AcDbEntity
8
0
100
AcDbLine
10
39652926.800
20
39458359.000
30
0.0
11
39652934.100
21
39458362.700
31
0.0
0
LINE
100
AcDbEntity
8
0
100
AcDbLine
10
39652946.900
20
39458359.000
30
0.0
11
39652954.200
21
39458362.700
31
0.0
0
LINE
100
AcDbEntity
8
0
100
AcDbLine
10
39652967.000
20
39458359.000
30
0.0
11
39652974.300
21
39458362.700
31
0.0
0
LINE
100
AcDbEntity
8
0
100
AcDbLine
10
39652987.100
20
39458359.000
30
0.0
11
39652994.400
21
39458362.700
31
0.0
0
LINE
100
AcDbEntity
8
0
100
AcDbLine
10
39653007.200
20
39458359.000
30
0.0
11
39653014.500
21
39458362.700
31
0.0
0
LINE
100
AcDbEntity
8
0
100
AcDbLine
10
39653027.300
20
39458359.000
30
0.0
11
39653034.600
21
39458362.700
31
0.0
0
LINE
100
AcDbEntity
8
0
100
AcDbLine
10
39653047.400
20
39458359.000
30
0.0
11
39653054.700
21
39458362.700
31
0.0
0
LINE
100
AcDbEntity
8
0
100
AcDbLine
10
39653067.500
20
39458359.000
30
0.0
11
39653074.800
21
39458362.700
31
0.0
0
LINE
100
AcDbEntity
8
0
100
AcDbLine
10
39653087.600
20
39458359.000
30
0.0
11
39653094.900
21
39458362.700
31
0.0
0
LINE
100
AcDbEntity
8
0
100
AcDbLine
10
39653107.700
20
39458359.000
30
0.0
11
39653115.000
21
39458362.700
31
0.0
0
LINE
100
AcDbEntity
8
0
100
AcDbLine
10
39653127.800
20
39458359.000
30
0.0
11
39653135.100
21
39458362.700
31
0.0
0
LINE
100
AcDbEntity
8
0
100
AcDbLine
10
39653147.900
20
39458359.000
30
0.0
11
39653155.200
21
39458362.700
31
0.0
0
LINE
100
AcDbEntity
8
0
100
AcDbLine
10
39653168.000
20
39458359.000
30
0.0
11
39653175.300
21
39458362.700
31
0.0
0
LINE
100
AcDbEntity
8
0
100
AcDbLine
10
39653188.100
20
39458359.000
30
0.0
11
39653195.400
21
39458362.700
31
0.0
0
LINE
100
AcDbEntity
8
0
100
AcDbLine
10
39653208.200
20
39458359.000
30
0.0
11
39653215.500
21
39458362.700
31
0.0
0
LINE
100
AcDbEntity
8
0
100
AcDbLine
10
39653228.300
20
39458359.000
30
0.0
11
39653235.600
21
39458362.700
31
0.0
0
LINE
100
AcDbEntity
8
0
100
AcDbLine
10
39653248.400
20
39458359.000
30
0.0
11
39653255.700
21
39458362.700
31
0.0
0
LINE
100
AcDbEntity
8
0
100
AcDbLine
10
39653268.500
20
39458359.000
30
0.0
11
39653275.800
21
39458362.700
31
0.0
0
LINE
100
AcDbEntity
8
0
100
AcDbLine
10
39653288.600
20
39458359.000
30
0.0
11
39653295.900
21
39458362.700
31
0.0
0
LINE
100
AcDbEntity
8
0
100
AcDbLine
10
39653308.700
20
39458359.000
30
0.0
11
39653316.000
21
39458362.700
31
0.0
0
LINE
100
AcDbEntity
8
0
100
AcDbLine
10
39652926.800
20
39458379.100
30
0.0
11
39652934.100
21
39458382.800
31
0.0
0
LINE
100
AcDbEntity
8
0
100
AcDbLine
10
39652946.900
20
39458379.100
30
0.0
11
39652954.200
21
39458382.800
31
0.0
0
LINE
100
AcDbEntity
8
0
100
AcDbLine
10
39652967.000
20
39458379.100
30
0.0
11
39652974.300
21
39458382.800
31
0.0
0
LINE
100
AcDbEntity
8
0
100
AcDbLine
10
39652987.100
20
39458379.100
30
0.0
11
39652994.400
21
39458382.800
31
0.0
0
LINE
100
AcDbEntity
8
0
100
AcDbLine
10
39653007.200
20
39458379.100
30
0.0
11
39653014.500
21
39458382.800
31
0.0
0
LINE
100
AcDbEntity
8
0
100
AcDbLine
10
39653027.300
20
39458379.100
30
0.0
11
39653034.600
21
39458382.800
31
0.0
0
LINE
100
AcDbEntity
8
0
100
AcDbLine
10
39653047.400
20
39458379.100
30
0.0
11
39653054.700
21
39458382.800
31
0.0
0
LINE
100
AcDbEntity
8
0
100
AcDbLine
10
39653067.500
20
39458379.100
30
0.0
11
39653074.800
21
39458382.800
31
0.0
0
LINE
100
AcDbEntity
8
0
100
AcDbLine
10
39653087.600
20
39458379.100
30
0.0
11
39653094.900
21
39458382.800
31
0.0
0
LINE
100
AcDbEntity
8
0
100
AcDbLine
10
39653107.700
20
39458379.100
30
0.0
11
39653115.000
21
39458382.800
31
0.0
0
LINE
100
AcDbEntity
8
0
100
AcDbLine
10
39653127.800
20
39458379.100
30
0.0
11
39653135.100
21
39458382.800
31
0.0
0
LINE
100
AcDbEntity
8
0
100
AcDbLine
10
39653147.900
20
39458379.100
30
0.0
11
39653155.200
21
39458382.800
31
0.0
0
LINE
100
AcDbEntity
8
0
100
AcDbLine
10
39653168.000
20
39458379.100
30
0.0
11
39653175.300
21
39458382.800
31
0.0
0
LINE
100
AcDbEntity
8
0
100
AcDbLine
10
39653188.100
20
39458379.100
30
0.0
11
39653195.400
21
39458382.800
31
0.0
0
LINE
100
AcDbEntity
8
0
100
AcDbLine
10
39653208.200
20
39458379.100
30
0.0
11
39653215.500
21
39458382.800
31
0.0
0
LINE
100
AcDbEntity
8
0
100
AcDbLine
10
39653228.300
20
39458379.100
30
0.0
11
39653235.600
21
39458382.800
31
0.0
0
LINE
100
AcDbEntity
8
0
100
AcDbLine
10
39653248.400
20
39458379.100
30
0.0
11
39653255.700
21
39458382.800
31
0.0
0
LINE
100
AcDbEntity
8
0
100
AcDbLine
10
39653268.500
20
39458379.100
30
0.0
11
39653275.800
21
39458382.800
31
0.0
0
LINE
100
AcDbEntity
8
0
100
AcDbLine
10
39653288.600
20
39458379.100
30
0.0
11
39653295.900
21
39458382.800
31
0.0
0
LINE
100
AcDbEntity
8
0
100
AcDbLine
10
39653308.700
20
39458379.100
30
0.0
11
39653316.000
21
39458382.800
31
0.0
0
LINE
100
AcDbEntity
8
0
100
AcDbLine
10
39652926.800
20
39458399.200
30
0.0
11
39652934.100
21
39458402.900
31
0.0
0
LINE
100
AcDbEntity
8
0
100
AcDbLine
10
39652946.900
20
39458399.200
30
0.0
11
39652954.200
21
39458402.900
31
0.0
0
LINE
100
AcDbEntity
8
0
100
AcDbLine
10
39652967.000
20
39458399.200
30
0.0
11
39652974.300
21
39458402.900
31
0.0
0
LINE
100
AcDbEntity
8
0
100
AcDbLine
10
39652987.100
20
39458399.200
30
0.0
11
39652994.400
21
39458402.900
31
0.0
0
LINE
100
AcDbEntity
8
0
100
AcDbLine
10
39653007.200
20
39458399.200
30
0.0
11
39653014.500
21
39458402.900
31
0.0
0
LINE
100
AcDbEntity
8
0
100
AcDbLine
10
39653027.300
20
39458399.200
30
0.0
11
39653034.600
21
39458402.900
31
0.0
0
LINE
100
AcDbEntity
8
0
100
AcDbLine
10
39653047.400
20
39458399.200
30
0.0
11
39653054.700
21
39458402.900
31
0.0
0
LINE
100
AcDbEntity
8
0
100
AcDbLine
10
39653067.500
20
39458399.200
30
0.0
11
39653074.800
21
39458402.900
31
0.0
0
LINE
100
AcDbEntity
8
0
100
AcDbLine
10
39653087.600
20
39458399.200
30
0.0
11
39653094.900
21
39458402.900
31
0.0
0
LINE
100
AcDbEntity
8
0
100
AcDbLine
10
39653107.700
20
39458399.200
30
0.0
11
39653115.000
21
39458402.900
31
0.0
0
LINE
100
AcDbEntity
8
0
100
AcDbLine
10
39653127.800
20
39458399.200
30
0.0
11
39653135.100
21
39458402.900
31
0.0
0
LINE
100
AcDbEntity
8
0
100
AcDbLine
10
39653147.900
20
39458399.200
30
0.0
11
39653155.200
21
39458402.900
31
0.0
0
LINE
100
AcDbEntity
8
0
100
AcDbLine
10
39653168.000
20
39458399.200
30
0.0
11
39653175.300
21
39458402.900
31
0.0
0
LINE
100
AcDbEntity
8
0
100
AcDbLine
10
39653188.100
20
39458399.200
30
0.0
11
39653195.400
21
39458402.900
31
0.0
0
LINE
100
AcDbEntity
8
0
100
AcDbLine
10
39653208.200
20
39458399.200
30
0.0
11
39653215.500
21
39458402.900
31
0.0
0
LINE
100
AcDbEntity
8
0
100
AcDbLine
10
39653228.300
20
39458399.200
30
0.0
11
39653235.600
21
39458402.900
31
0.0
0
LINE
100
AcDbEntity
8
0
100
AcDbLine
10
39653248.400
20
39458399.200
30
0.0
11
39653255.700
21
39458402.900
31
0.0
0
LINE
100
AcDbEntity
8
0
100
AcDbLine
10
39653268.500
20
39458399.200
30
0.0
11
39653275.800
21
39458402.900
31
0.0
0
LINE
100
AcDbEntity
8
0
100
AcDbLine
10
39653288.600
20
39458399.200
30
0.0
11
39653295.900
21
39458402.900
31
0.0
0
LINE
100
AcDbEntity
8
0
100
AcDbLine
10
39653308.700
20
39458399.200
30
0.0
11
39653316.000
21
39458402.900
31
0.0
0
LINE
100
AcDbEntity
8
0
100
AcDbLine
10
39652926.800
20
39458419.300
30
0.0
11
39652934.100
21
39458423.000
31
0.0
0
LINE
100
AcDbEntity
8
0
100
AcDbLine
10
39652946.900
20
39458419.300
30
0.0
11
39652954.200
21
39458423.000
31
0.0
0
LINE
100
AcDbEntity
8
0
100
AcDbLine
10
39652967.000
20
39458419.300
30
0.0
11
39652974.300
21
39458423.000
31
0.0
0
LINE
100
AcDbEntity
8
0
100
AcDbLine
10
39652987.100
20
39458419.300
30
0.0
11
39652994.400
21
39458423.000
31
0.0
0
LINE
100
AcDbEntity
8
0
100
AcDbLine
10
39653007.200
20
39458419.300
30
0.0
11
39653014.500
21
39458423.000
31
0.0
0
LINE
100
AcDbEntity
8
0
100
AcDbLine
10
39653027.300
20
39458419.300
30
0.0
11
39653034.600
21
39458423.000
31
0.0
0
LINE
100
AcDbEntity
8
0
100
AcDbLine
10
39653047.400
20
39458419.300
30
0.0
11
39653054.700
21
39458423.000
31
0.0
0
LINE
100
AcDbEntity
8
0
100
AcDbLine
10
39653067.500
20
39458419.300
30
0.0
11
39653074.800
21
39458423.000
31
0.0
0
LINE
100
AcDbEntity
8
0
100
AcDbLine
10
39653087.600
20
39458419.300
30
0.0
11
39653094.900
21
39458423.000
31
0.0
0
LINE
100
AcDbEntity
8
0
100
AcDbLine
10
39653107.700
20
39458419.300
30
0.0
11
39653115.000
21
39458423.000
31
0.0
0
LINE
100
AcDbEntity
8
0
100
AcDbLine
10
39653127.800
20
39458419.300
30
0.0
11
39653135.100
21
39458423.000
31
0.0
0
LINE
100
AcDbEntity
8
0
100
AcDbLine
10
39653147.900
20
39458419.300
30
0.0
11
39653155.200
21
39458423.000
31
0.0
0
LINE
100
AcDbEntity
8
0
100
AcDbLine
10
39653168.000
20
39458419.300
30
0.0
11
39653175.300
21
39458423.000
31
0.0
0
LINE
100
AcDbEntity
8
0
100
AcDbLine
10
39653188.100
20
39458419.300
30
0.0
11
39653195.400
21
39458423.000
31
0.0
0
LINE
100
AcDbEntity
8
0
100
AcDbLine
10
39653208.200
20
39458419.300
30
0.0
11
39653215.500
21
39458423.000
31
0.0
0
LINE
100
AcDbEntity
8
0
100
AcDbLine
10
39653228.300
20
39458419.300
30
0.0
11
39653235.600
21
39458423.000
31
0.0
0
LINE
100
AcDbEntity
8
0
100
AcDbLine
10
39653248.400
20
39458419.300
30
0.0
11
39653255.700
21
39458423.000
31
0.0
0
LINE
100
AcDbEntity
8
0
100
AcDbLine
10
39653268.500
20
39458419.300
30
0.0
11
39653275.800
21
39458423.000
31
0.0
0
LINE
100
AcDbEntity
8
0
100
AcDbLine
10
39653288.600
20
39458419.300
30
0.0
11
39653295.900
21
39458423.000
31
0.0
0
LINE
100
AcDbEntity
8
0
100
AcDbLine
10
39653308.700
20
39458419.300
30
0.0
11
39653316.000
21
39458423.000
31
0.0
0
LINE
100
AcDbEntity
8
0
100
AcDbLine
10
39652926.800
20
39458439.400
30
0.0
11
39652934.100
21
39458443.100
31
0.0
0
LINE
100
AcDbEntity
8
0
100
AcDbLine
10
39652946.900
20
39458439.400
30
0.0
11
39652954.200
21
39458443.100
31
0.0
0
LINE
100
AcDbEntity
8
0
100
AcDbLine
10
39652967.000
20
39458439.400
30
0.0
11
39652974.300
21
39458443.100
31
0.0
0
LINE
100
AcDbEntity
8
0
100
AcDbLine
10
39652987.100
20
39458439.400
30
0.0
11
39652994.400
21
39458443.100
31
0.0
0
LINE
100
AcDbEntity
8
0
100
AcDbLine
10
39653007.200
20
39458439.400
30
0.0
11
39653014.500
21
39458443.100
31
0.0
0
LINE
100
AcDbEntity
8
0
100
AcDbLine
10
39653027.300
20
39458439.400
30
0.0
11
39653034.600
21
39458443.100
31
0.0
0
LINE
100
AcDbEntity
8
0
100
AcDbLine
10
39653047.400
20
39458439.400
30
0.0
11
39653054.700
21
39458443.100
31
0.0
0
LINE
100
AcDbEntity
8
0
100
AcDbLine
10
39653067.500
20
39458439.400
30
0.0
11
39653074.800
21
39458443.100
31
0.0
0
LINE
100
AcDbEntity
8
0
100
AcDbLine
10
39653087.600
20
39458439.400
30
0.0
11
39653094.900
21
39458443.100
31
0.0
0
LINE
100
AcDbEntity
8
0
100
AcDbLine
10
39653107.700
20
39458439.400
30
0.0
11
39653115.000
21
39458443.100
31
0.0
0
LINE
100
AcDbEntity
8
0
100
AcDbLine
10
39653127.800
20
39458439.400
30
0.0
11
39653135.100
21
39458443.100
31
0.0
0
LINE
100
AcDbEntity
8
0
100
AcDbLine
10
39653147.900
20
39458439.400
30
0.0
11
39653155.200
21
39458443.100
31
0.0
0
LINE
100
AcDbEntity
8
0
100
AcDbLine
10
39653168.000
20
39458439.400
30
0.0
11
39653175.300
21
39458443.100
31
0.0
0
LINE
100
AcDbEntity
8
0
100
AcDbLine
10
39653188.100
20
39458439.400
30
0.0
11
39653195.400
21
39458443.100
31
0.0
0
LINE
100
AcDbEntity
8
0
100
AcDbLine
10
39653208.200
20
39458439.400
30
0.0
11
39653215.500
21
39458443.100
31
0.0
0
LINE
100
AcDbEntity
8
0
100
AcDbLine
10
39653228.300
20
39458439.400
30
0.0
11
39653235.600
21
39458443.100
31
0.0
0
LINE
100
AcDbEntity
8
0
100
AcDbLine
10
39653248.400
20
39458439.400
30
0.0
11
39653255.700
21
39458443.100
31
0.0
0
LINE
100
AcDbEntity
8
0
100
AcDbLine
10
39653268.500
20
39458439.400
30
0.0
11
39653275.800
21
39458443.100
31
0.0
0
LINE
100
AcDbEntity
8
0
100
AcDbLine
10
39653288.600
20
39458439.400
30
0.0
11
39653295.900
21
39458443.100
31
0.0
0
LINE
100
AcDbEntity
8
0
100
AcDbLine
10
39653308.700
20
39458439.400
30
0.0
11
39653316.000
21
39458443.100
31
0.0
0
LINE
100
AcDbEntity
8
0
100
AcDbLine
10
39652926.800
20
39458459.500
30
0.0
11
39652934.100
21
39458463.200
31
0.0
0
LINE
100
AcDbEntity
8
0
100
AcDbLine
10
39652946.900
20
39458459.500
30
0.0
11
39652954.200
21
39458463.200
31
0.0
0
LINE
100
AcDbEntity
8
0
100
AcDbLine
10
39652967.000
20
39458459.500
30
0.0
11
39652974.300
21
39458463.200
31
0.0
0
LINE
100
AcDbEntity
8
0
100
AcDbLine
10
39652987.100
20
39458459.500
30
0.0
11
39652994.400
21
39458463.200
31
0.0
0
LINE
100
AcDbEntity
8
0
100
AcDbLine
10
39653007.200
20
39458459.500
30
0.0
11
39653014.500
21
39458463.200
31
0.0
0
LINE
100
AcDbEntity
8
0
100
AcDbLine
10
39653027.300
20
39458459.500
30
0.0
11
39653034.600
21
39458463.200
31
0.0
0
LINE
100
AcDbEntity
8
0
100
AcDbLine
10
39653047.400
20
39458459.500
30
0.0
11
39653054.700
21
39458463.200
31
0.0
0
LINE
100
AcDbEntity
8
0
100
AcDbLine
10
39653067.500
20
39458459.500
30
0.0
11
39653074.800
21
39458463.200
31
0.0
0
LINE
100
AcDbEntity
8
0
100
AcDbLine
10
39653087.600
20
39458459.500
30
0.0
11
39653094.900
21
39458463.200
31
0.0
0
LINE
100
AcDbEntity
8
0
100
AcDbLine
10
39653107.700
20
39458459.500
30
0.0
11
39653115.000
21
39458463.200
31
0.0
0
LINE
100
AcDbEntity
8
0
100
AcDbLine
10
39653127.800
20
39458459.500
30
0.0
11
39653135.100
21
39458463.200
31
0.0
0
LINE
100
AcDbEntity
8
0
100
AcDbLine
10
39653147.900
20
39458459.500
30
0.0
11
39653155.200
21
39458463.200
31
0.0
0
LINE
100
AcDbEntity
8
0
100
AcDbLine
10
39653168.000
20
39458459.500
30
0.0
11
39653175.300
21
39458463.200
31
0.0
0
LINE
100
AcDbEntity
8
0
100
AcDbLine
10
39653188.100
20
39458459.500
30
0.0
11
39653195.400
21
39458463.200
31
0.0
0
LINE
100
AcDbEntity
8
0
100
AcDbLine
10
39653208.200
20
39458459.500
30
0.0
11
39653215.500
21
39458463.200
31
0.0
0
LINE
100
AcDbEntity
8
0
100
AcDbLine
10
39653228.300
20
39458459.500
30
0.0
11
39653235.600
21
39458463.200
31
0.0
0
LINE
100
AcDbEntity
8
0
100
AcDbLine
10
39653248.400
20
39458459.500
30
0.0
11
39653255.700
21
39458463.200
31
0.0
0
LINE
100
AcDbEntity
8
0
100
AcDbLine
10
39653268.500
20
39458459.500
30
0.0
11
39653275.800
21
39458463.200
31
0.0
0
LINE
100
AcDbEntity
8
0
100
AcDbLine
10
39653288.600
20
39458459.500
30
0.0
11
39653295.900
21
39458463.200
31
0.0
0
LINE
100
AcDbEntity
8
0
100
AcDbLine
10
39653308.700
20
39458459.500
30
0.0
11
39653316.000
21
39458463.200
31
0.0
0
LINE
100
AcDbEntity
8
0
100
AcDbLine
10
39652926.800
20
39458479.600
30
0.0
11
39652934.100
21
39458483.300
31
0.0
0
LINE
100
AcDbEntity
8
0
100
AcDbLine
10
39652946.900
20
39458479.600
30
0.0
11
39652954.200
21
39458483.300
31
0.0
0
LINE
100
AcDbEntity
8
0
100
AcDbLine
10
39652967.000
20
39458479.600
30
0.0
11
39652974.300
21
39458483.300
31
0.0
0
LINE
100
AcDbEntity
8
0
100
AcDbLine
10
39652987.100
20
39458479.600
30
0.0
11
39652994.400
21
39458483.300
31
0.0
0
LINE
100
AcDbEntity
8
0
100
AcDbLine
10
39653007.200
20
39458479.600
30
0.0
11
39653014.500
21
39458483.300
31
0.0
0
LINE
100
AcDbEntity
8
0
100
AcDbLine
10
39653027.300
20
39458479.600
30
0.0
11
39653034.600
21
39458483.300
31
0.0
0
LINE
100
AcDbEntity
8
0
100
AcDbLine
10
39653047.400
20
39458479.600
30
0.0
11
39653054.700
21
39458483.300
31
0.0
0
LINE
100
AcDbEntity
8
0
100
AcDbLine
10
39653067.500
20
39458479.600
30
0.0
11
39653074.800
21
39458483.300
31
0.0
0
LINE
100
AcDbEntity
8
0
100
AcDbLine
10
39653087.600
20
39458479.600
30
0.0
11
39653094.900
21
39458483.300
31
0.0
0
LINE
100
AcDbEntity
8
0
100
AcDbLine
10
39653107.700
20
39458479.600
30
0.0
11
39653115.000
21
39458483.300
31
0.0
0
LINE
100
AcDbEntity
8
0
100
AcDbLine
10
39653127.800
20
39458479.600
30
0.0
11
39653135.100
21
39458483.300
31
0.0
0
LINE
100
AcDbEntity
8
0
100
AcDbLine
10
39653147.900
20
39458479.600
30
0.0
11
39653155.200
21
39458483.300
31
0.0
0
LINE
100
AcDbEntity
8
0
100
AcDbLine
10
39653168.000
20
39458479.600
30
0.0
11
39653175.300
21
39458483.300
31
0.0
0
LINE
100
AcDbEntity
8
0
100
AcDbLine
10
39653188.100
20
39458479.600
30
0.0
11
39653195.400
21
39458483.300
31
0.0
0
LINE
100
AcDbEntity
8
0
100
AcDbLine
10
39653208.200
20
39458479.600
30
0.0
11
39653215.500
21
39458483.300
31
0.0
0
LINE
100
AcDbEntity
8
0
100
AcDbLine
10
39653228.300
20
39458479.600
30
0.0
11
39653235.600
21
39458483.300
31
0.0
0
LINE
100
AcDbEntity
8
0
100
AcDbLine
10
39653248.400
20
39458479.600
30
0.0
11
39653255.700
21
39458483.300
31
0.0
0
LINE
100
AcDbEntity
8
0
100
AcDbLine
10
39653268.500
20
39458479.600
30
0.0
11
39653275.800
21
39458483.300
31
0.0
0
LINE
100
AcDbEntity
8
0
100
AcDbLine
10
39653288.600
20
39458479.600
30
0.0
11
39653295.900
21
39458483.300
31
0.0
0
LINE
100
AcDbEntity
8
0
100
AcDbLine
10
39653308.700
20
39458479.600
30
0.0
11
39653316.000
21
39458483.300
31
0.0
0
LINE
100
AcDbEntity
8
0
100
AcDbLine
10
39652926.800
20
39458499.700
30
0.0
11
39652934.100
21
39458503.400
31
0.0
0
LINE
100
AcDbEntity
8
0
100
AcDbLine
10
39652946.900
20
39458499.700
30
0.0
11
39652954.200
21
39458503.400
31
0.0
0
LINE
100
AcDbEntity
8
0
100
AcDbLine
10
39652967.000
20
39458499.700
30
0.0
11
39652974.300
21
39458503.400
31
0.0
0
LINE
100
AcDbEntity
8
0
100
AcDbLine
10
39652987.100
20
39458499.700
30
0.0
11
39652994.400
21
39458503.400
31
0.0
0
LINE
100
AcDbEntity
8
0
100
AcDbLine
10
39653007.200
20
39458499.700
30
0.0
11
39653014.500
21
39458503.400
31
0.0
0
LINE
100
AcDbEntity
8
0
100
AcDbLine
10
39653027.300
20
39458499.700
30
0.0
11
39653034.600
21
39458503.400
31
0.0
0
LINE
100
AcDbEntity
8
0
100
AcDbLine
10
39653047.400
20
39458499.700
30
0.0
11
39653054.700
21
39458503.400
31
0.0
0
LINE
100
AcDbEntity
8
0
100
AcDbLine
10
39653067.500
20
39458499.700
30
0.0
11
39653074.800
21
39458503.400
31
0.0
0
LINE
100
AcDbEntity
8
0
100
AcDbLine
10
39653087.600
20
39458499.700
30
0.0
11
39653094.900
21
39458503.400
31
0.0
0
LINE
100
AcDbEntity
8
0
100
AcDbLine
10
39653107.700
20
39458499.700
30
0.0
11
39653115.000
21
39458503.400
31
0.0
0
LINE
100
AcDbEntity
8
0
100
AcDbLine
10
39653127.800
20
39458499.700
30
0.0
11
39653135.100
21
39458503.400
31
0.0
0
LINE
100
AcDbEntity
8
0
100
AcDbLine
10
39653147.900
20
39458499.700
30
0.0
11
39653155.200
21
39458503.400
31
0.0
0
LINE
100
AcDbEntity
8
0
100
AcDbLine
10
39653168.000
20
39458499.700
30
0.0
11
39653175.300
21
39458503.400
31
0.0
0
LINE
100
AcDbEntity
8
0
100
AcDbLine
10
39653188.100
20
39458499.700
30
0.0
11
39653195.400
21
39458503.400
31
0.0
0
LINE
100
AcDbEntity
8
0
100
AcDbLine
10
39653208.200
20
39458499.700
30
0.0
11
39653215.500
21
39458503.400
31
0.0
0
LINE
100
AcDbEntity
8
0
100
AcDbLine
10
39653228.300
20
39458499.700
30
0.0
11
39653235.600
21
39458503.400
31
0.0
0
LINE
100
AcDbEntity
8
0
100
AcDbLine
10
39653248.400
20
39458499.700
30
0.0
11
39653255.700
21
39458503.400
31
0.0
0
LINE
100
AcDbEntity
8
0
100
AcDbLine
10
39653268.500
20
39458499.700
30
0.0
11
39653275.800
21
39458503.400
31
0.0
0
LINE
100
AcDbEntity
8
0
100
AcDbLine
10
39653288.600
20
39458499.700
30
0.0
11
39653295.900
21
39458503.400
31
0.0
0
LINE
100
AcDbEntity
8
0
100
AcDbLine
10
39653308.700
20
39458499.700
30
0.0
11
39653316.000
21
39458503.400
31
0.0
0
LINE
100
AcDbEntity
8
0
100
AcDbLine
10
39652926.800
20
39458519.800
30
0.0
11
39652934.100
21
39458523.500
31
0.0
0
LINE
100
AcDbEntity
8
0
100
AcDbLine
10
39652946.900
20
39458519.800
30
0.0
11
39652954.200
21
39458523.500
31
0.0
0
LINE
100
AcDbEntity
8
0
100
AcDbLine
10
39652967.000
20
39458519.800
30
0.0
11
39652974.300
21
39458523.500
31
0.0
0
LINE
100
AcDbEntity
8
0
100
AcDbLine
10
39652987.100
20
39458519.800
30
0.0
11
39652994.400
21
39458523.500
31
0.0
0
LINE
100
AcDbEntity
8
0
100
AcDbLine
10
39653007.200
20
39458519.800
30
0.0
11
39653014.500
21
39458523.500
31
0.0
0
LINE
100
AcDbEntity
8
0
100
AcDbLine
10
39653027.300
20
39458519.800
30
0.0
11
39653034.600
21
39458523.500
31
0.0
0
LINE
100
AcDbEntity
8
0
100
AcDbLine
10
39653047.400
20
39458519.800
30
0.0
11
39653054.700
21
39458523.500
31
0.0
0
LINE
100
AcDbEntity
8
0
100
AcDbLine
10
39653067.500
20
39458519.800
30
0.0
11
39653074.800
21
39458523.500
31
0.0
0
LINE
100
AcDbEntity
8
0
100
AcDbLine
10
39653087.600
20
39458519.800
30
0.0
11
39653094.900
21
39458523.500
31
0.0
0
LINE
100
AcDbEntity
8
0
100
AcDbLine
10
39653107.700
20
39458519.800
30
0.0
11
39653115.000
21
39458523.500
31
0.0
0
LINE
100
AcDbEntity
8
0
100
AcDbLine
10
39653127.800
20
39458519.800
30
0.0
11
39653135.100
21
39458523.500
31
0.0
0
LINE
100
AcDbEntity
8
0
100
AcDbLine
10
39653147.900
20
39458519.800
30
0.0
11
39653155.200
21
39458523.500
31
0.0
0
LINE
100
AcDbEntity
8
0
100
AcDbLine
10
39653168.000
20
39458519.800
30
0.0
11
39653175.300
21
39458523.500
31
0.0
0
LINE
100
AcDbEntity
8
0
100
AcDbLine
10
39653188.100
20
39458519.800
30
0.0
11
39653195.400
21
39458523.500
31
0.0
0
LINE
100
AcDbEntity
8
0
100
AcDbLine
10
39653208.200
20
39458519.800
30
0.0
11
39653215.500
21
39458523.500
31
0.0
0
LINE
100
AcDbEntity
8
0
100
AcDbLine
10
39653228.300
20
39458519.800
30
0.0
11
39653235.600
21
39458523.500
31
0.0
0
LINE
100
AcDbEntity
8
0
100
AcDbLine
10
39653248.400
20
39458519.800
30
0.0
11
39653255.700
21
39458523.500
31
0.0
0
LINE
100
AcDbEntity
8
0
100
AcDbLine
10
39653268.500
20
39458519.800
30
0.0
11
39653275.800
21
39458523.500
31
0.0
0
LINE
100
AcDbEntity
8
0
100
AcDbLine
10
39653288.600
20
39458519.800
30
0.0
11
39653295.900
21
39458523.500
31
0.0
0
LINE
100
AcDbEntity
8
0
100
AcDbLine
10
39653308.700
20
39458519.800
30
0.0
11
39653316.000
21
39458523.500
31
0.0
0
LINE
100
AcDbEntity
8
0
100
AcDbLine
10
39652926.800
20
39458539.900
30
0.0
11
39652934.100
21
39458543.600
31
0.0
0
LINE
100
AcDbEntity
8
0
100
AcDbLine
10
39652946.900
20
39458539.900
30
0.0
11
39652954.200
21
39458543.600
31
0.0
0
LINE
100
AcDbEntity
8
0
100
AcDbLine
10
39652967.000
20
39458539.900
30
0.0
11
39652974.300
21
39458543.600
31
0.0
0
LINE
100
AcDbEntity
8
0
100
AcDbLine
10
39652987.100
20
39458539.900
30
0.0
11
39652994.400
21
39458543.600
31
0.0
0
LINE
100
AcDbEntity
8
0
100
AcDbLine
10
39653007.200
20
39458539.900
30
0.0
11
39653014.500
21
39458543.600
31
0.0
0
LINE
100
AcDbEntity
8
0
100
AcDbLine
10
39653027.300
20
39458539.900
30
0.0
11
39653034.600
21
39458543.600
31
0.0
0
LINE
100
AcDbEntity
8
0
100
AcDbLine
10
39653047.400
20
39458539.900
30
0.0
11
39653054.700
21
39458543.600
31
0.0
0
LINE
100
AcDbEntity
8
0
100
AcDbLine
10
39653067.500
20
39458539.900
30
0.0
11
39653074.800
21
39458543.600
31
0.0
0
LINE
100
AcDbEntity
8
0
100
AcDbLine
10
39653087.600
20
39458539.900
30
0.0
11
39653094.900
21
39458543.600
31
0.0
0
LINE
100
AcDbEntity
8
0
100
AcDbLine
10
39653107.700
20
39458539.900
30
0.0
11
39653115.000
21
39458543.600
31
0.0
0
LINE
100
AcDbEntity
8
0
100
AcDbLine
10
39653127.800
20
39458539.900
30
0.0
11
39653135.100
21
39458543.600
31
0.0
0
LINE
100
AcDbEntity
8
0
100
AcDbLine
10
39653147.900
20
39458539.900
30
0.0
11
39653155.200
21
39458543.600
31
0.0
0
LINE
100
AcDbEntity
8
0
100
AcDbLine
10
39653168.000
20
39458539.900
30
0.0
11
39653175.300
21
39458543.600
31
0.0
0
LINE
100
AcDbEntity
8
0
100
AcDbLine
10
39653188.100
20
39458539.900
30
0.0
11
39653195.400
21
39458543.600
31
0.0
0
LINE
100
AcDbEntity
8
0
100
AcDbLine
10
39653208.200
20
39458539.900
30
0.0
11
39653215.500
21
39458543.600
31
0.0
0
LINE
100
AcDbEntity
8
0
100
AcDbLine
10
39653228.300
20
39458539.900
30
0.0
11
39653235.600
21
39458543.600
31
0.0
0
LINE
100
AcDbEntity
8
0
100
AcDbLine
10
39653248.400
20
39458539.900
30
0.0
11
39653255.700
21
39458543.600
31
0.0
0
LINE
100
AcDbEntity
8
0
100
AcDbLine
10
39653268.500
20
39458539.900
30
0.0
11
39653275.800
21
39458543.600
31
0.0
0
LINE
100
AcDbEntity
8
0
100
AcDbLine
10
39653288.600
20
39458539.900
30
0.0
11
39653295.900
21
39458543.600
31
0.0
0
LINE
100
AcDbEntity
8
0
100
AcDbLine
10
39653308.700
20
39458539.900
30
0.0
11
39653316.000
21
39458543.600
31
0.0
0
LINE
100
AcDbEntity
8
0
100
AcDbLine
10
39652926.800
20
39458560.000
30
0.0
11
39652934.100
21
39458563.700
31
0.0
0
LINE
100
AcDbEntity
8
0
100
AcDbLine
10
39652946.900
20
39458560.000
30
0.0
11
39652954.200
21
39458563.700
31
0.0
0
LINE
100
AcDbEntity
8
0
100
AcDbLine
10
39652967.000
20
39458560.000
30
0.0
11
39652974.300
21
39458563.700
31
0.0
0
LINE
100
AcDbEntity
8
0
100
AcDbLine
10
39652987.100
20
39458560.000
30
0.0
11
39652994.400
21
39458563.700
31
0.0
0
LINE
100
AcDbEntity
8
0
100
AcDbLine
10
39653007.200
20
39458560.000
30
0.0
11
39653014.500
21
39458563.700
31
0.0
0
LINE
100
AcDbEntity
8
0
100
AcDbLine
10
39653027.300
20
39458560.000
30
0.0
11
39653034.600
21
39458563.700
31
0.0
0
LINE
100
AcDbEntity
8
0
100
AcDbLine
10
39653047.400
20
39458560.000
30
0.0
11
39653054.700
21
39458563.700
31
0.0
0
LINE
100
AcDbEntity
8
0
100
AcDbLine
10
39653067.500
20
39458560.000
30
0.0
11
39653074.800
21
39458563.700
31
0.0
0
LINE
100
AcDbEntity
8
0
100
AcDbLine
10
39653087.600
20
39458560.000
30
0.0
11
39653094.900
21
39458563.700
31
0.0
0
LINE
100
AcDbEntity
8
0
100
AcDbLine
10
39653107.700
20
39458560.000
30
0.0
11
39653115.000
21
39458563.700
31
0.0
0
LINE
100
AcDbEntity
8
0
100
AcDbLine
10
39653127.800
20
39458560.000
30
0.0
11
39653135.100
21
39458563.700
31
0.0
0
LINE
100
AcDbEntity
8
0
100
AcDbLine
10
39653147.900
20
39458560.000
30
0.0
11
39653155.200
21
39458563.700
31
0.0
0
LINE
100
AcDbEntity
8
0
100
AcDbLine
10
39653168.000
20
39458560.000
30
0.0
11
39653175.300
21
39458563.700
31
0.0
0
LINE
100
AcDbEntity
8
0
100
AcDbLine
10
39653188.100
20
39458560.000
30
0.0
11
39653195.400
21
39458563.700
31
0.0
0
LINE
100
AcDbEntity
8
0
100
AcDbLine
10
39653208.200
20
39458560.000
30
0.0
11
39653215.500
21
39458563.700
31
0.0
0
LINE
100
AcDbEntity
8
0
100
AcDbLine
10
39653228.300
20
39458560.000
30
0.0
11
39653235.600
21
39458563.700
31
0.0
0
LINE
100
AcDbEntity
8
0
100
AcDbLine
10
39653248.400
20
39458560.000
30
0.0
11
39653255.700
21
39458563.700
31
0.0
0
LINE
100
AcDbEntity
8
0
100
AcDbLine
10
39653268.500
20
39458560.000
30
0.0
11
39653275.800
21
39458563.700
31
0.0
0
LINE
100
AcDbEntity
8
0
100
AcDbLine
10
39653288.600
20
39458560.000
30
0.0
11
39653295.900
21
39458563.700
31
0.0
0
LINE
100
AcDbEntity
8
0
100
AcDbLine
10
39653308.700
20
39458560.000
30
0.0
11
39653316.000
21
39458563.700
31
0.0
0
LINE
100
AcDbEntity
8
0
100
AcDbLine
10
39652926.800
20
39458580.100
30
0.0
11
39652934.100
21
39458583.800
31
0.0
0
LINE
100
AcDbEntity
8
0
100
AcDbLine
10
39652946.900
20
39458580.100
30
0.0
11
39652954.200
21
39458583.800
31
0.0
0
LINE
100
AcDbEntity
8
0
100
AcDbLine
10
39652967.000
20
39458580.100
30
0.0
11
39652974.300
21
39458583.800
31
0.0
0
LINE
100
AcDbEntity
8
0
100
AcDbLine
10
39652987.100
20
39458580.100
30
0.0
11
39652994.400
21
39458583.800
31
0.0
0
LINE
100
AcDbEntity
8
0
100
AcDbLine
10
39653007.200
20
39458580.100
30
0.0
11
39653014.500
21
39458583.800
31
0.0
0
LINE
100
AcDbEntity
8
0
100
AcDbLine
10
39653027.300
20
39458580.100
30
0.0
11
39653034.600
21
39458583.800
31
0.0
0
LINE
100
AcDbEntity
8
0
100
AcDbLine
10
39653047.400
20
39458580.100
30
0.0
11
39653054.700
21
39458583.800
31
0.0
0
LINE
100
AcDbEntity
8
0
100
AcDbLine
10
39653067.500
20
39458580.100
30
0.0
11
39653074.800
21
39458583.800
31
0.0
0
LINE
100
AcDbEntity
8
0
100
AcDbLine
10
39653087.600
20
39458580.100
30
0.0
11
39653094.900
21
39458583.800
31
0.0
0
LINE
100
AcDbEntity
8
0
100
AcDbLine
10
39653107.700
20
39458580.100
30
0.0
11
39653115.000
21
39458583.800
31
0.0
0
LINE
100
AcDbEntity
8
0
100
AcDbLine
10
39653127.800
20
39458580.100
30
0.0
11
39653135.100
21
39458583.800
31
0.0
0
LINE
100
AcDbEntity
8
0
100
AcDbLine
10
39653147.900
20
39458580.100
30
0.0
11
39653155.200
21
39458583.800
31
0.0
0
LINE
100
AcDbEntity
8
0
100
AcDbLine
10
39653168.000
20
39458580.100
30
0.0
11
39653175.300
21
39458583.800
31
0.0
0
LINE
100
AcDbEntity
8
0
100
AcDbLine
10
39653188.100
20
39458580.100
30
0.0
11
39653195.400
21
39458583.800
31
0.0
0
LINE
100
AcDbEntity
8
0
100
AcDbLine
10
39653208.200
20
39458580.100
30
0.0
11
39653215.500
21
39458583.800
31
0.0
0
LINE
100
AcDbEntity
8
0
100
AcDbLine
10
39653228.300
20
39458580.100
30
0.0
11
39653235.600
21
39458583.800
31
0.0
0
LINE
100
AcDbEntity
8
0
100
AcDbLine
10
39653248.400
20
39458580.100
30
0.0
11
39653255.700
21
39458583.800
31
0.0
0
LINE
100
AcDbEntity
8
0
100
AcDbLine
10
39653268.500
20
39458580.100
30
0.0
11
39653275.800
21
39458583.800
31
0.0
0
LINE
100
AcDbEntity
8
0
100
AcDbLine
10
39653288.600
20
39458580.100
30
0.0
11
39653295.900
21
39458583.800
31
0.0
0
LINE
100
AcDbEntity
8
0
100
AcDbLine
10
39653308.700
20
39458580.100
30
0.0
11
39653316.000
21
39458583.800
31
0.0
0
LINE
100
AcDbEntity
8
0
100
AcDbLine
10
39652926.800
20
39458600.200
30
0.0
11
39652934.100
21
39458603.900
31
0.0
0
LINE
100
AcDbEntity
8
0
100
AcDbLine
10
39652946.900
20
39458600.200
30
0.0
11
39652954.200
21
39458603.900
31
0.0
0
LINE
100
AcDbEntity
8
0
100
AcDbLine
10
39652967.000
20
39458600.200
30
0.0
11
39652974.300
21
39458603.900
31
0.0
0
LINE
100
AcDbEntity
8
0
100
AcDbLine
10
39652987.100
20
39458600.200
30
0.0
11
39652994.400
21
39458603.900
31
0.0
0
LINE
100
AcDbEntity
8
0
100
AcDbLine
10
39653007.200
20
39458600.200
30
0.0
11
39653014.500
21
39458603.900
31
0.0
0
LINE
100
AcDbEntity
8
0
100
AcDbLine
10
39653027.300
20
39458600.200
30
0.0
11
39653034.600
21
39458603.900
31
0.0
0
LINE
100
AcDbEntity
8
0
100
AcDbLine
10
39653047.400
20
39458600.200
30
0.0
11
39653054.700
21
39458603.900
31
0.0
0
LINE
100
AcDbEntity
8
0
100
AcDbLine
10
39653067.500
20
39458600.200
30
0.0
11
39653074.800
21
39458603.900
31
0.0
0
LINE
100
AcDbEntity
8
0
100
AcDbLine
10
39653087.600
20
39458600.200
30
0.0
11
39653094.900
21
39458603.900
31
0.0
0
LINE
100
AcDbEntity
8
0
100
AcDbLine
10
39653107.700
20
39458600.200
30
0.0
11
39653115.000
21
39458603.900
31
0.0
0
LINE
100
AcDbEntity
8
0
100
AcDbLine
10
39653127.800
20
39458600.200
30
0.0
11
39653135.100
21
39458603.900
31
0.0
0
LINE
100
AcDbEntity
8
0
100
AcDbLine
10
39653147.900
20
39458600.200
30
0.0
11
39653155.200
21
39458603.900
31
0.0
0
LINE
100
AcDbEntity
8
0
100
AcDbLine
10
39653168.000
20
39458600.200
30
0.0
11
39653175.300
21
39458603.900
31
0.0
0
LINE
100
AcDbEntity
8
0
100
AcDbLine
10
39653188.100
20
39458600.200
30
0.0
11
39653195.400
21
39458603.900
31
0.0
0
LINE
100
AcDbEntity
8
0
100
AcDbLine
10
39653208.200
20
39458600.200
30
0.0
11
39653215.500
21
39458603.900
31
0.0
0
LINE
100
AcDbEntity
8
0
100
AcDbLine
10
39653228.300
20
39458600.200
30
0.0
11
39653235.600
21
39458603.900
31
0.0
0
LINE
100
AcDbEntity
8
0
100
AcDbLine
10
39653248.400
20
39458600.200
30
0.0
11
39653255.700
21
39458603.900
31
0.0
0
LINE
100
AcDbEntity
8
0
100
AcDbLine
10
39653268.500
20
39458600.200
30
0.0
11
39653275.800
21
39458603.900
31
0.0
0
LINE
100
AcDbEntity
8
0
100
AcDbLine
10
39653288.600
20
39458600.200
30
0.0
11
39653295.900
21
39458603.900
31
0.0
0
LINE
100
AcDbEntity
8
0
100
AcDbLine
10
39653308.700
20
39458600.200
30
0.0
11
39653316.000
21
39458603.900
31
0.0
0
LINE
100
AcDbEntity
8
0
100
AcDbLine
10
39652926.800
20
39458620.300
30
0.0
11
39652934.100
21
39458624.000
31
0.0
0
LINE
100
AcDbEntity
8
0
100
AcDbLine
10
39652946.900
20
39458620.300
30
0.0
11
39652954.200
21
39458624.000
31
0.0
0
LINE
100
AcDbEntity
8
0
100
AcDbLine
10
39652967.000
20
39458620.300
30
0.0
11
39652974.300
21
39458624.000
31
0.0
0
LINE
100
AcDbEntity
8
0
100
AcDbLine
10
39652987.100
20
39458620.300
30
0.0
11
39652994.400
21
39458624.000
31
0.0
0
LINE
100
AcDbEntity
8
0
100
AcDbLine
10
39653007.200
20
39458620.300
30
0.0
11
39653014.500
21
39458624.000
31
0.0
0
LINE
100
AcDbEntity
8
0
100
AcDbLine
10
39653027.300
20
39458620.300
30
0.0
11
39653034.600
21
39458624.000
31
0.0
0
LINE
100
AcDbEntity
8
0
100
AcDbLine
10
39653047.400
20
39458620.300
30
0.0
11
39653054.700
21
39458624.000
31
0.0
0
LINE
100
AcDbEntity
8
0
100
AcDbLine
10
39653067.500
20
39458620.300
30
0.0
11
39653074.800
21
39458624.000
31
0.0
0
LINE
100
AcDbEntity
8
0
100
AcDbLine
10
39653087.600
20
39458620.300
30
0.0
11
39653094.900
21
39458624.000
31
0.0
0
LINE
100
AcDbEntity
8
0
100
AcDbLine
10
39653107.700
20
39458620.300
30
0.0
11
39653115.000
21
39458624.000
31
0.0
0
LINE
100
AcDbEntity
8
0
100
AcDbLine
10
39653127.800
20
39458620.300
30
0.0
11
39653135.100
21
39458624.000
31
0.0
0
LINE
100
AcDbEntity
8
0
100
AcDbLine
10
39653147.900
20
39458620.300
30
0.0
11
39653155.200
21
39458624.000
31
0.0
0
LINE
100
AcDbEntity
8
0
100
AcDbLine
10
39653168.000
20
39458620.300
30
0.0
11
39653175.300
21
39458624.000
31
0.0
0
LINE
100
AcDbEntity
8
0
100
AcDbLine
10
39653188.100
20
39458620.300
30
0.0
11
39653195.400
21
39458624.000
31
0.0
0
LINE
100
AcDbEntity
8
0
100
AcDbLine
10
39653208.200
20
39458620.300
30
0.0
11
39653215.500
21
39458624.000
31
0.0
0
LINE
100
AcDbEntity
8
0
100
AcDbLine
10
39653228.300
20
39458620.300
30
0.0
11
39653235.600
21
39458624.000
31
0.0
0
LINE
100
AcDbEntity
8
0
100
AcDbLine
10
39653248.400
20
39458620.300
30
0.0
11
39653255.700
21
39458624.000
31
0.0
0
LINE
100
AcDbEntity
8
0
100
AcDbLine
10
39653268.500
20
39458620.300
30
0.0
11
39653275.800
21
39458624.000
31
0.0
0
LINE
100
AcDbEntity
8
0
100
AcDbLine
10
39653288.600
20
39458620.300
30
0.0
11
39653295.900
21
39458624.000
31
0.0
0
LINE
100
AcDbEntity
8
0
100
AcDbLine
10
39653308.700
20
39458620.300
30
0.0
11
39653316.000
21
39458624.000
31
0.0
0
LWPOLYLINE
100
AcDbEntity
8
SURVEY
100
AcDbPolyline
90
3
70
0
10
39652926.800
20
39458238.400
10
19826927.100
20
19733237.700
10
927.500
20
8238.700
0
LINE
100
AcDbEntity
8
0
100
AcDbLine
10
926.800
20
8238.400
30
0.0
11
931.900
21
8241.300
31
0.0
0
LINE
100
AcDbEntity
8
0
100
AcDbLine
10
942.100
20
8238.400
30
0.0
11
947.200
21
8241.300
31
0.0
0
LINE
100
AcDbEntity
8
0
100
AcDbLine
10
957.400
20
8238.400
30
0.0
11
962.500
21
8241.300
31
0.0
0
LINE
100
AcDbEntity
8
0
100
AcDbLine
10
972.700
20
8238.400
30
0.0
11
977.800
21
8241.300
31
0.0
0
LINE
100
AcDbEntity
8
0
100
AcDbLine
10
988.000
20
8238.400
30
0.0
11
993.100
21
8241.300
31
0.0
0
LINE
100
AcDbEntity
8
0
100
AcDbLine
10
1003.300
20
8238.400
30
0.0
11
1008.400
21
8241.300
31
0.0
0
LINE
100
AcDbEntity
8
0
100
AcDbLine
10
1018.600
20
8238.400
30
0.0
11
1023.700
21
8241.300
31
0.0
0
LINE
100
AcDbEntity
8
0
100
AcDbLine
10
1033.900
20
8238.400
30
0.0
11
1039.000
21
8241.300
31
0.0
0
LINE
100
AcDbEntity
8
0
100
AcDbLine
10
1049.200
20
8238.400
30
0.0
11
1054.300
21
8241.300
31
0.0
0
LINE
100
AcDbEntity
8
0
100
AcDbLine
10
1064.500
20
8238.400
30
0.0
11
1069.600
21
8241.300
31
0.0
0
LINE
100
AcDbEntity
8
0
100
AcDbLine
10
926.800
20
8253.700
30
0.0
11
931.900
21
8256.600
31
0.0
0
LINE
100
AcDbEntity
8
0
100
AcDbLine
10
942.100
20
8253.700
30
0.0
11
947.200
21
8256.600
31
0.0
0
LINE
100
AcDbEntity
8
0
100
AcDbLine
10
957.400
20
8253.700
30
0.0
11
962.500
21
8256.600
31
0.0
0
LINE
100
AcDbEntity
8
0
100
AcDbLine
10
972.700
20
8253.700
30
0.0
11
977.800
21
8256.600
31
0.0
0
LINE
100
AcDbEntity
8
0
100
AcDbLine
10
988.000
20
8253.700
30
0.0
11
993.100
21
8256.600
31
0.0
0
LINE
100
AcDbEntity
8
0
100
AcDbLine
10
1003.300
20
8253.700
30
0.0
11
1008.400
21
8256.600
31
0.0
0
LINE
100
AcDbEntity
8
0
100
AcDbLine
10
1018.600
20
8253.700
30
0.0
11
1023.700
21
8256.600
31
0.0
0
LINE
100
AcDbEntity
8
0
100
AcDbLine
10
1033.900
20
8253.700
30
0.0
11
1039.000
21
8256.600
31
0.0
0
LINE
100
AcDbEntity
8
0
100
AcDbLine
10
1049.200
20
8253.700
30
0.0
11
1054.300
21
8256.600
31
0.0
0
LINE
100
AcDbEntity
8
0
100
AcDbLine
10
1064.500
20
8253.700
30
0.0
11
1069.600
21
8256.600
31
0.0
0
LINE
100
AcDbEntity
8
0
100
AcDbLine
10
926.800
20
8269.000
30
0.0
11
931.900
21
8271.900
31
0.0
0
LINE
100
AcDbEntity
8
0
100
AcDbLine
10
942.100
20
8269.000
30
0.0
11
947.200
21
8271.900
31
0.0
0
LINE
100
AcDbEntity
8
0
100
AcDbLine
10
957.400
20
8269.000
30
0.0
11
962.500
21
8271.900
31
0.0
0
LINE
100
AcDbEntity
8
0
100
AcDbLine
10
972.700
20
8269.000
30
0.0
11
977.800
21
8271.900
31
0.0
0
LINE
100
AcDbEntity
8
0
100
AcDbLine
10
988.000
20
8269.000
30
0.0
11
993.100
21
8271.900
31
0.0
0
LINE
100
AcDbEntity
8
0
100
AcDbLine
10
1003.300
20
8269.000
30
0.0
11
1008.400
21
8271.900
31
0.0
0
LINE
100
AcDbEntity
8
0
100
AcDbLine
10
1018.600
20
8269.000
30
0.0
11
1023.700
21
8271.900
31
0.0
0
LINE
100
AcDbEntity
8
0
100
AcDbLine
10
1033.900
20
8269.000
30
0.0
11
1039.000
21
8271.900
31
0.0
0
LINE
100
AcDbEntity
8
0
100
AcDbLine
10
1049.200
20
8269.000
30
0.0
11
1054.300
21
8271.900
31
0.0
0
LINE
100
AcDbEntity
8
0
100
AcDbLine
10
1064.500
20
8269.000
30
0.0
11
1069.600
21
8271.900
31
0.0
0
LINE
100
AcDbEntity
8
0
100
AcDbLine
10
926.800
20
8284.300
30
0.0
11
931.900
21
8287.200
31
0.0
0
LINE
100
AcDbEntity
8
0
100
AcDbLine
10
942.100
20
8284.300
30
0.0
11
947.200
21
8287.200
31
0.0
0
LINE
100
AcDbEntity
8
0
100
AcDbLine
10
957.400
20
8284.300
30
0.0
11
962.500
21
8287.200
31
0.0
0
LINE
100
AcDbEntity
8
0
100
AcDbLine
10
972.700
20
8284.300
30
0.0
11
977.800
21
8287.200
31
0.0
0
LINE
100
AcDbEntity
8
0
100
AcDbLine
10
988.000
20
8284.300
30
0.0
11
993.100
21
8287.200
31
0.0
0
LINE
100
AcDbEntity
8
0
100
AcDbLine
10
1003.300
20
8284.300
30
0.0
11
1008.400
21
8287.200
31
0.0
0
LINE
100
AcDbEntity
8
0
100
AcDbLine
10
1018.600
20
8284.300
30
0.0
11
1023.700
21
8287.200
31
0.0
0
LINE
100
AcDbEntity
8
0
100
AcDbLine
10
1033.900
20
8284.300
30
0.0
11
1039.000
21
8287.200
31
0.0
0
LINE
100
AcDbEntity
8
0
100
AcDbLine
10
1049.200
20
8284.300
30
0.0
11
1054.300
21
8287.200
31
0.0
0
LINE
100
AcDbEntity
8
0
100
AcDbLine
10
1064.500
20
8284.300
30
0.0
11
1069.600
21
8287.200
31
0.0
0
LINE
100
AcDbEntity
8
0
100
AcDbLine
10
926.800
20
8299.600
30
0.0
11
931.900
21
8302.500
31
0.0
0
LINE
100
AcDbEntity
8
0
100
AcDbLine
10
942.100
20
8299.600
30
0.0
11
947.200
21
8302.500
31
0.0
0
LINE
100
AcDbEntity
8
0
100
AcDbLine
10
957.400
20
8299.600
30
0.0
11
962.500
21
8302.500
31
0.0
0
LINE
100
AcDbEntity
8
0
100
AcDbLine
10
972.700
20
8299.600
30
0.0
11
977.800
21
8302.500
31
0.0
0
LINE
100
AcDbEntity
8
0
100
AcDbLine
10
988.000
20
8299.600
30
0.0
11
993.100
21
8302.500
31
0.0
0
LINE
100
AcDbEntity
8
0
100
AcDbLine
10
1003.300
20
8299.600
30
0.0
11
1008.400
21
8302.500
31
0.0
0
LINE
100
AcDbEntity
8
0
100
AcDbLine
10
1018.600
20
8299.600
30
0.0
11
1023.700
21
8302.500
31
0.0
0
LINE
100
AcDbEntity
8
0
100
AcDbLine
10
1033.900
20
8299.600
30
0.0
11
1039.000
21
8302.500
31
0.0
0
LINE
100
AcDbEntity
8
0
100
AcDbLine
10
1049.200
20
8299.600
30
0.0
11
1054.300
21
8302.500
31
0.0
0
LINE
100
AcDbEntity
8
0
100
AcDbLine
10
1064.500
20
8299.600
30
0.0
11
1069.600
21
8302.500
31
0.0
0
LINE
100
AcDbEntity
8
0
100
AcDbLine
10
926.800
20
8314.900
30
0.0
11
931.900
21
8317.800
31
0.0
0
LINE
100
AcDbEntity
8
0
100
AcDbLine
10
942.100
20
8314.900
30
0.0
11
947.200
21
8317.800
31
0.0
0
LINE
100
AcDbEntity
8
0
100
AcDbLine
10
957.400
20
8314.900
30
0.0
11
962.500
21
8317.800
31
0.0
0
LINE
100
AcDbEntity
8
0
100
AcDbLine
10
972.700
20
8314.900
30
0.0
11
977.800
21
8317.800
31
0.0
0
LINE
100
AcDbEntity
8
0
100
AcDbLine
10
988.000
20
8314.900
30
0.0
11
993.100
21
8317.800
31
0.0
0
LINE
100
AcDbEntity
8
0
100
AcDbLine
10
1003.300
20
8314.900
30
0.0
11
1008.400
21
8317.800
31
0.0
0
LINE
100
AcDbEntity
8
0
100
AcDbLine
10
1018.600
20
8314.900
30
0.0
11
1023.700
21
8317.800
31
0.0
0
LINE
100
AcDbEntity
8
0
100
AcDbLine
10
1033.900
20
8314.900
30
0.0
11
1039.000
21
8317.800
31
0.0
0
LINE
100
AcDbEntity
8
0
100
AcDbLine
10
1049.200
20
8314.900
30
0.0
11
1054.300
21
8317.800
31
0.0
0
LINE
100
AcDbEntity
8
0
100
AcDbLine
10
1064.500
20
8314.900
30
0.0
11
1069.600
21
8317.800
31
0.0
0
3DFACE
100
AcDbEntity
8
HIFACE
100
AcDbFace
10
39652926.800
20
39458238.400
30
19730366.2
11
39652931.100
21
39458238.400
31
19730366.2
12
39652931.100
22
39458242.700
32
19730366.2
13
39652926.800
23
39458242.700
33
19730366.2
0
3DFACE
100
AcDbEntity
8
HIFACE
100
AcDbFace
10
39652957.500
20
39458238.400
30
19730366.2
11
39652961.800
21
39458238.400
31
19730366.2
12
39652961.800
22
39458242.700
32
19730366.2
13
39652957.500
23
39458242.700
33
19730366.2
0
3DFACE
100
AcDbEntity
8
HIFACE
100
AcDbFace
10
39652988.200
20
39458238.400
30
19730366.2
11
39652992.500
21
39458238.400
31
19730366.2
12
39652992.500
22
39458242.700
32
19730366.2
13
39652988.200
23
39458242.700
33
19730366.2
0
3DFACE
100
AcDbEntity
8
HIFACE
100
AcDbFace
10
39653018.900
20
39458238.400
30
19730366.2
11
39653023.200
21
39458238.400
31
19730366.2
12
39653023.200
22
39458242.700
32
19730366.2
13
39653018.900
23
39458242.700
33
19730366.2
0
3DFACE
100
AcDbEntity
8
HIFACE
100
AcDbFace
10
39653049.600
20
39458238.400
30
19730366.2
11
39653053.900
21
39458238.400
31
19730366.2
12
39653053.900
22
39458242.700
32
19730366.2
13
39653049.600
23
39458242.700
33
19730366.2
0
3DFACE
100
AcDbEntity
8
HIFACE
100
AcDbFace
10
39652926.800
20
39458269.100
30
19730366.2
11
39652931.100
21
39458269.100
31
19730366.2
12
39652931.100
22
39458273.400
32
19730366.2
13
39652926.800
23
39458273.400
33
19730366.2
0
3DFACE
100
AcDbEntity
8
HIFACE
100
AcDbFace
10
39652957.500
20
39458269.100
30
19730366.2
11
39652961.800
21
39458269.100
31
19730366.2
12
39652961.800
22
39458273.400
32
19730366.2
13
39652957.500
23
39458273.400
33
19730366.2
0
3DFACE
100
AcDbEntity
8
HIFACE
100
AcDbFace
10
39652988.200
20
39458269.100
30
19730366.2
11
39652992.500
21
39458269.100
31
19730366.2
12
39652992.500
22
39458273.400
32
19730366.2
13
39652988.200
23
39458273.400
33
19730366.2
0
3DFACE
100
AcDbEntity
8
HIFACE
100
AcDbFace
10
39653018.900
20
39458269.100
30
19730366.2
11
39653023.200
21
39458269.100
31
19730366.2
12
39653023.200
22
39458273.400
32
19730366.2
13
39653018.900
23
39458273.400
33
19730366.2
0
3DFACE
100
AcDbEntity
8
HIFACE
100
AcDbFace
10
39653049.600
20
39458269.100
30
19730366.2
11
39653053.900
21
39458269.100
31
19730366.2
12
39653053.900
22
39458273.400
32
19730366.2
13
39653049.600
23
39458273.400
33
19730366.2
0
3DFACE
100
AcDbEntity
8
HIFACE
100
AcDbFace
10
39652926.800
20
39458299.800
30
19730366.2
11
39652931.100
21
39458299.800
31
19730366.2
12
39652931.100
22
39458304.100
32
19730366.2
13
39652926.800
23
39458304.100
33
19730366.2
0
3DFACE
100
AcDbEntity
8
HIFACE
100
AcDbFace
10
39652957.500
20
39458299.800
30
19730366.2
11
39652961.800
21
39458299.800
31
19730366.2
12
39652961.800
22
39458304.100
32
19730366.2
13
39652957.500
23
39458304.100
33
19730366.2
0
3DFACE
100
AcDbEntity
8
HIFACE
100
AcDbFace
10
39652988.200
20
39458299.800
30
19730366.2
11
39652992.500
21
39458299.800
31
19730366.2
12
39652992.500
22
39458304.100
32
19730366.2
13
39652988.200
23
39458304.100
33
19730366.2
0
3DFACE
100
AcDbEntity
8
HIFACE
100
AcDbFace
10
39653018.900
20
39458299.800
30
19730366.2
11
39653023.200
21
39458299.800
31
19730366.2
12
39653023.200
22
39458304.100
32
19730366.2
13
39653018.900
23
39458304.100
33
19730366.2
0
3DFACE
100
AcDbEntity
8
HIFACE
100
AcDbFace
10
39653049.600
20
39458299.800
30
19730366.2
11
39653053.900
21
39458299.800
31
19730366.2
12
39653053.900
22
39458304.100
32
19730366.2
13
39653049.600
23
39458304.100
33
19730366.2
0
3DFACE
100
AcDbEntity
8
HIFACE
100
AcDbFace
10
39652926.800
20
39458330.500
30
19730366.2
11
39652931.100
21
39458330.500
31
19730366.2
12
39652931.100
22
39458334.800
32
19730366.2
13
39652926.800
23
39458334.800
33
19730366.2
0
3DFACE
100
AcDbEntity
8
HIFACE
100
AcDbFace
10
39652957.500
20
39458330.500
30
19730366.2
11
39652961.800
21
39458330.500
31
19730366.2
12
39652961.800
22
39458334.800
32
19730366.2
13
39652957.500
23
39458334.800
33
19730366.2
0
3DFACE
100
AcDbEntity
8
HIFACE
100
AcDbFace
10
39652988.200
20
39458330.500
30
19730366.2
11
39652992.500
21
39458330.500
31
19730366.2
12
39652992.500
22
39458334.800
32
19730366.2
13
39652988.200
23
39458334.800
33
19730366.2
0
3DFACE
100
AcDbEntity
8
HIFACE
100
AcDbFace
10
39653018.900
20
39458330.500
30
19730366.2
11
39653023.200
21
39458330.500
31
19730366.2
12
39653023.200
22
39458334.800
32
19730366.2
13
39653018.900
23
39458334.800
33
19730366.2
0
3DFACE
100
AcDbEntity
8
HIFACE
100
AcDbFace
10
39653049.600
20
39458330.500
30
19730366.2
11
39653053.900
21
39458330.500
31
19730366.2
12
39653053.900
22
39458334.800
32
19730366.2
13
39653049.600
23
39458334.800
33
19730366.2
0
ENDSEC
0
EOF
